<svg xmlns="http://www.w3.org/2000/svg" version="1.1" xmlns:xlink="http://www.w3.org/1999/xlink" xmlns:svgjs="http://svgjs.dev/svgjs" width="1000" height="166" viewBox="0 0 1000 166"><g transform="matrix(1,0,0,1,-0.6060379596523262,0.43741101376807023)"><svg viewBox="0 0 396 66" data-background-color="#ffffff" preserveAspectRatio="xMidYMid meet" height="166" width="1000" xmlns="http://www.w3.org/2000/svg" xmlns:xlink="http://www.w3.org/1999/xlink"><g id="tight-bounds" transform="matrix(1,0,0,1,0.23999103202231709,-0.1739104030644114)"><svg viewBox="0 0 395.52 66.34782080612882" height="66.34782080612882" width="395.52"><g><svg viewBox="0 0 517.6995837154373 86.84324234364715" height="66.34782080612882" width="395.52"><g><rect width="5.6668691872476105" height="63.153009084924285" x="101.67797843591838" y="11.845116629361431" fill="#128aa4" opacity="1" stroke-width="0" stroke="transparent" fill-opacity="1" class="rect-o-0" data-fill-palette-color="primary" rx="1%" id="o-0" data-palette-color="#128aa4"></rect></g><g transform="matrix(1,0,0,1,122.17958371543722,12.002213666886114)"><svg viewBox="0 0 395.52 62.83881500987492" height="62.83881500987492" width="395.52"><g id="textblocktransform"><svg viewBox="0 0 395.52 62.83881500987492" height="62.83881500987492" width="395.52" id="textblock"><g><svg viewBox="0 0 395.52 62.83881500987492" height="62.83881500987492" width="395.52"><g transform="matrix(1,0,0,1,0,0)"><svg width="395.52" viewBox="2.0999999046325684 -35.599998474121094 227.82998657226562 36.19999694824219" height="62.83881500987492" data-palette-color="#128aa4"><g class="wordmark-text-0" data-fill-palette-color="primary" id="text-0"><path d="M13.6 0.6L13.6 0.6Q10.15 0.6 7.2-0.7 4.25-2 2.1-4.25L2.1-4.25 4.6-7.15Q6.35-5.3 8.72-4.17 11.1-3.05 13.65-3.05L13.65-3.05Q16.9-3.05 18.7-4.53 20.5-6 20.5-8.4L20.5-8.4Q20.5-9.65 20.08-10.53 19.65-11.4 18.93-12.03 18.2-12.65 17.2-13.15 16.2-13.65 15.05-14.2L15.05-14.2 10.35-16.25Q9.2-16.75 8-17.45 6.8-18.15 5.85-19.15 4.9-20.15 4.3-21.53 3.7-22.9 3.7-24.7L3.7-24.7Q3.7-26.55 4.48-28.15 5.25-29.75 6.63-30.93 8-32.1 9.88-32.75 11.75-33.4 14-33.4L14-33.4Q16.95-33.4 19.45-32.27 21.95-31.15 23.7-29.35L23.7-29.35 21.45-26.65Q19.95-28.1 18.13-28.93 16.3-29.75 14-29.75L14-29.75Q11.25-29.75 9.58-28.48 7.9-27.2 7.9-24.95L7.9-24.95Q7.9-23.75 8.38-22.93 8.85-22.1 9.65-21.48 10.45-20.85 11.4-20.38 12.35-19.9 13.35-19.5L13.35-19.5 18-17.5Q19.4-16.9 20.65-16.13 21.9-15.35 22.8-14.33 23.7-13.3 24.23-11.93 24.75-10.55 24.75-8.75L24.75-8.75Q24.75-6.8 23.98-5.1 23.2-3.4 21.75-2.13 20.3-0.85 18.25-0.13 16.2 0.6 13.6 0.6ZM34.9 0L30.8 0 30.8-24.3 34.2-24.3 34.55-20.8 34.7-20.8Q36.3-22.55 38.17-23.73 40.05-24.9 42.25-24.9L42.25-24.9Q45.05-24.9 46.62-23.68 48.2-22.45 48.95-20.25L48.95-20.25Q50.85-22.35 52.77-23.63 54.7-24.9 56.95-24.9L56.95-24.9Q60.7-24.9 62.52-22.5 64.35-20.1 64.35-15.4L64.35-15.4 64.35 0 60.25 0 60.25-14.85Q60.25-18.3 59.15-19.83 58.05-21.35 55.75-21.35L55.75-21.35Q53-21.35 49.65-17.6L49.65-17.6 49.65 0 45.55 0 45.55-14.85Q45.55-18.3 44.45-19.83 43.35-21.35 41-21.35L41-21.35Q38.25-21.35 34.9-17.6L34.9-17.6 34.9 0ZM77.85 0.6L77.85 0.6Q74.8 0.6 72.77-1.2 70.75-3 70.75-6.3L70.75-6.3Q70.75-10.3 74.3-12.43 77.85-14.55 85.65-15.4L85.65-15.4Q85.65-16.55 85.42-17.65 85.2-18.75 84.65-19.6 84.1-20.45 83.12-20.98 82.15-21.5 80.65-21.5L80.65-21.5Q78.55-21.5 76.7-20.7 74.85-19.9 73.4-18.9L73.4-18.9 71.8-21.75Q73.5-22.85 75.95-23.88 78.4-24.9 81.35-24.9L81.35-24.9Q85.8-24.9 87.8-22.18 89.8-19.45 89.8-14.9L89.8-14.9 89.8 0 86.4 0 86.05-2.9 85.9-2.9Q84.15-1.45 82.15-0.43 80.15 0.6 77.85 0.6ZM79.05-2.7L79.05-2.7Q80.8-2.7 82.35-3.53 83.9-4.35 85.65-5.95L85.65-5.95 85.65-12.7Q82.6-12.3 80.52-11.75 78.45-11.2 77.17-10.45 75.9-9.7 75.32-8.72 74.75-7.75 74.75-6.6L74.75-6.6Q74.75-4.5 76-3.6 77.25-2.7 79.05-2.7ZM101.54 0L97.44 0 97.44-24.3 100.84-24.3 101.19-19.9 101.34-19.9Q102.59-22.2 104.37-23.55 106.14-24.9 108.24-24.9L108.24-24.9Q109.69-24.9 110.84-24.4L110.84-24.4 110.04-20.8Q109.44-21 108.94-21.1 108.44-21.2 107.69-21.2L107.69-21.2Q106.14-21.2 104.47-19.95 102.79-18.7 101.54-15.6L101.54-15.6 101.54 0ZM122.44 0.6L122.44 0.6Q120.49 0.6 119.17 0 117.84-0.6 117.02-1.65 116.19-2.7 115.84-4.2 115.49-5.7 115.49-7.5L115.49-7.5 115.49-20.95 111.89-20.95 111.89-24.05 115.69-24.3 116.19-31.1 119.64-31.1 119.64-24.3 126.19-24.3 126.19-20.95 119.64-20.95 119.64-7.45Q119.64-5.2 120.47-3.98 121.29-2.75 123.39-2.75L123.39-2.75Q124.04-2.75 124.79-2.95 125.54-3.15 126.14-3.4L126.14-3.4 126.94-0.3Q125.94 0.05 124.77 0.33 123.59 0.6 122.44 0.6ZM141.19 0.6L141.19 0.6Q137.74 0.6 134.79-0.7 131.84-2 129.69-4.25L129.69-4.25 132.19-7.15Q133.94-5.3 136.31-4.17 138.69-3.05 141.24-3.05L141.24-3.05Q144.49-3.05 146.29-4.53 148.09-6 148.09-8.4L148.09-8.4Q148.09-9.65 147.66-10.53 147.24-11.4 146.51-12.03 145.79-12.65 144.79-13.15 143.79-13.65 142.64-14.2L142.64-14.2 137.94-16.25Q136.79-16.75 135.59-17.45 134.39-18.15 133.44-19.15 132.49-20.15 131.89-21.53 131.29-22.9 131.29-24.7L131.29-24.7Q131.29-26.55 132.06-28.15 132.84-29.75 134.21-30.93 135.59-32.1 137.46-32.75 139.34-33.4 141.59-33.4L141.59-33.4Q144.54-33.4 147.04-32.27 149.54-31.15 151.29-29.35L151.29-29.35 149.04-26.65Q147.54-28.1 145.71-28.93 143.89-29.75 141.59-29.75L141.59-29.75Q138.84-29.75 137.16-28.48 135.49-27.2 135.49-24.95L135.49-24.95Q135.49-23.75 135.96-22.93 136.44-22.1 137.24-21.48 138.04-20.85 138.99-20.38 139.94-19.9 140.94-19.5L140.94-19.5 145.59-17.5Q146.99-16.9 148.24-16.13 149.49-15.35 150.39-14.33 151.29-13.3 151.81-11.93 152.34-10.55 152.34-8.75L152.34-8.75Q152.34-6.8 151.56-5.1 150.79-3.4 149.34-2.13 147.89-0.85 145.84-0.13 143.79 0.6 141.19 0.6ZM162.49 0L158.39 0 158.39-35.6 162.49-35.6 162.49-25.9 162.34-20.9Q164.09-22.55 165.99-23.73 167.89-24.9 170.44-24.9L170.44-24.9Q174.29-24.9 176.06-22.5 177.84-20.1 177.84-15.4L177.84-15.4 177.84 0 173.74 0 173.74-14.85Q173.74-18.3 172.64-19.83 171.54-21.35 169.14-21.35L169.14-21.35Q167.24-21.35 165.79-20.4 164.34-19.45 162.49-17.6L162.49-17.6 162.49 0ZM195.43 0.6L195.43 0.6Q192.98 0.6 190.86-0.28 188.73-1.15 187.16-2.78 185.58-4.4 184.68-6.75 183.78-9.1 183.78-12.1L183.78-12.1Q183.78-15.1 184.71-17.48 185.63-19.85 187.16-21.5 188.68-23.15 190.63-24.03 192.58-24.9 194.68-24.9L194.68-24.9Q196.98-24.9 198.81-24.1 200.63-23.3 201.86-21.8 203.08-20.3 203.73-18.2 204.38-16.1 204.38-13.5L204.38-13.5Q204.38-12.85 204.36-12.23 204.33-11.6 204.23-11.15L204.23-11.15 187.83-11.15Q188.08-7.25 190.26-4.98 192.43-2.7 195.93-2.7L195.93-2.7Q197.68-2.7 199.16-3.23 200.63-3.75 201.98-4.6L201.98-4.6 203.43-1.9Q201.83-0.9 199.88-0.15 197.93 0.6 195.43 0.6ZM187.78-14.1L187.78-14.1 200.78-14.1Q200.78-17.8 199.21-19.73 197.63-21.65 194.78-21.65L194.78-21.65Q193.48-21.65 192.31-21.15 191.13-20.65 190.18-19.68 189.23-18.7 188.61-17.3 187.98-15.9 187.78-14.1ZM218.68 0.6L218.68 0.6Q214.08 0.6 211.36-2.7 208.63-6 208.63-12.1L208.63-12.1Q208.63-15.05 209.51-17.43 210.38-19.8 211.83-21.45 213.28-23.1 215.18-24 217.08-24.9 219.18-24.9L219.18-24.9Q221.28-24.9 222.83-24.15 224.38-23.4 225.98-22.1L225.98-22.1 225.78-26.25 225.78-35.6 229.93-35.6 229.93 0 226.53 0 226.18-2.85 226.03-2.85Q224.58-1.45 222.71-0.43 220.83 0.6 218.68 0.6ZM219.58-2.85L219.58-2.85Q221.28-2.85 222.78-3.68 224.28-4.5 225.78-6.2L225.78-6.2 225.78-18.9Q224.23-20.3 222.81-20.88 221.38-21.45 219.88-21.45L219.88-21.45Q218.43-21.45 217.16-20.78 215.88-20.1 214.93-18.88 213.98-17.65 213.43-15.95 212.88-14.25 212.88-12.15L212.88-12.15Q212.88-7.75 214.63-5.3 216.38-2.85 219.58-2.85Z" fill="#128aa4" data-fill-palette-color="primary"></path></g></svg></g></svg></g></svg></g></svg></g><g><svg viewBox="0 0 86.84324234364715 86.84324234364715" height="86.84324234364715" width="86.84324234364715"><g><svg xmlns="http://www.w3.org/2000/svg" xmlns:xlink="http://www.w3.org/1999/xlink" version="1.1" x="0" y="0" viewBox="10.12399959564209 10 80 80" style="enable-background:new 0 0 100 100;" xml:space="preserve" height="86.84324234364715" width="86.84324234364715" class="icon-icon-0" data-fill-palette-color="accent" id="icon-0"><path d="M10.124 89c0 0.553 0.447 1 1 1h78c0.553 0 1-0.447 1-1V11c0-0.553-0.447-1-1-1h-78c-0.553 0-1 0.447-1 1V89zM12.124 12h76v76h-76V12z" fill="#128aa4" data-fill-palette-color="accent"></path><path d="M71.68 17.082H54.599c-0.553 0-1 0.447-1 1s0.447 1 1 1H71.68c0.553 0 1-0.447 1-1S72.232 17.082 71.68 17.082z" fill="#128aa4" data-fill-palette-color="accent"></path><path d="M54.599 25.082h5.466c0.553 0 1-0.447 1-1s-0.447-1-1-1h-5.466c-0.553 0-1 0.447-1 1S54.046 25.082 54.599 25.082z" fill="#128aa4" data-fill-palette-color="accent"></path><path d="M64.629 25.082h5.465c0.553 0 1-0.447 1-1s-0.447-1-1-1h-5.465c-0.553 0-1 0.447-1 1S64.076 25.082 64.629 25.082z" fill="#128aa4" data-fill-palette-color="accent"></path><path d="M80.124 23.082h-5.466c-0.553 0-1 0.447-1 1s0.447 1 1 1h5.466c0.553 0 1-0.447 1-1S80.677 23.082 80.124 23.082z" fill="#128aa4" data-fill-palette-color="accent"></path><path d="M54.599 29.915h5.466c0.553 0 1-0.447 1-1s-0.447-1-1-1h-5.466c-0.553 0-1 0.447-1 1S54.046 29.915 54.599 29.915z" fill="#128aa4" data-fill-palette-color="accent"></path><path d="M64.629 29.915h5.465c0.553 0 1-0.447 1-1s-0.447-1-1-1h-5.465c-0.553 0-1 0.447-1 1S64.076 29.915 64.629 29.915z" fill="#128aa4" data-fill-palette-color="accent"></path><path d="M80.124 27.915h-5.466c-0.553 0-1 0.447-1 1s0.447 1 1 1h5.466c0.553 0 1-0.447 1-1S80.677 27.915 80.124 27.915z" fill="#128aa4" data-fill-palette-color="accent"></path><path d="M54.599 34.748h5.466c0.553 0 1-0.447 1-1s-0.447-1-1-1h-5.466c-0.553 0-1 0.447-1 1S54.046 34.748 54.599 34.748z" fill="#128aa4" data-fill-palette-color="accent"></path><path d="M64.629 34.748h5.465c0.553 0 1-0.447 1-1s-0.447-1-1-1h-5.465c-0.553 0-1 0.447-1 1S64.076 34.748 64.629 34.748z" fill="#128aa4" data-fill-palette-color="accent"></path><path d="M80.124 32.748h-5.466c-0.553 0-1 0.447-1 1s0.447 1 1 1h5.466c0.553 0 1-0.447 1-1S80.677 32.748 80.124 32.748z" fill="#128aa4" data-fill-palette-color="accent"></path><path d="M71.68 41.165H54.599c-0.553 0-1 0.447-1 1s0.447 1 1 1H71.68c0.553 0 1-0.447 1-1S72.232 41.165 71.68 41.165z" fill="#128aa4" data-fill-palette-color="accent"></path><path d="M54.599 49.165h5.466c0.553 0 1-0.447 1-1s-0.447-1-1-1h-5.466c-0.553 0-1 0.447-1 1S54.046 49.165 54.599 49.165z" fill="#128aa4" data-fill-palette-color="accent"></path><path d="M64.629 49.165h5.465c0.553 0 1-0.447 1-1s-0.447-1-1-1h-5.465c-0.553 0-1 0.447-1 1S64.076 49.165 64.629 49.165z" fill="#128aa4" data-fill-palette-color="accent"></path><path d="M80.124 47.165h-5.466c-0.553 0-1 0.447-1 1s0.447 1 1 1h5.466c0.553 0 1-0.447 1-1S80.677 47.165 80.124 47.165z" fill="#128aa4" data-fill-palette-color="accent"></path><path d="M54.599 53.998h5.466c0.553 0 1-0.447 1-1s-0.447-1-1-1h-5.466c-0.553 0-1 0.447-1 1S54.046 53.998 54.599 53.998z" fill="#128aa4" data-fill-palette-color="accent"></path><path d="M64.629 53.998h5.465c0.553 0 1-0.447 1-1s-0.447-1-1-1h-5.465c-0.553 0-1 0.447-1 1S64.076 53.998 64.629 53.998z" fill="#128aa4" data-fill-palette-color="accent"></path><path d="M80.124 51.998h-5.466c-0.553 0-1 0.447-1 1s0.447 1 1 1h5.466c0.553 0 1-0.447 1-1S80.677 51.998 80.124 51.998z" fill="#128aa4" data-fill-palette-color="accent"></path><path d="M54.599 58.832h5.466c0.553 0 1-0.447 1-1s-0.447-1-1-1h-5.466c-0.553 0-1 0.447-1 1S54.046 58.832 54.599 58.832z" fill="#128aa4" data-fill-palette-color="accent"></path><path d="M64.629 58.832h5.465c0.553 0 1-0.447 1-1s-0.447-1-1-1h-5.465c-0.553 0-1 0.447-1 1S64.076 58.832 64.629 58.832z" fill="#128aa4" data-fill-palette-color="accent"></path><path d="M80.124 56.832h-5.466c-0.553 0-1 0.447-1 1s0.447 1 1 1h5.466c0.553 0 1-0.447 1-1S80.677 56.832 80.124 56.832z" fill="#128aa4" data-fill-palette-color="accent"></path><path d="M71.68 65.248H54.599c-0.553 0-1 0.447-1 1s0.447 1 1 1H71.68c0.553 0 1-0.447 1-1S72.232 65.248 71.68 65.248z" fill="#128aa4" data-fill-palette-color="accent"></path><path d="M60.064 71.248h-5.466c-0.553 0-1 0.447-1 1s0.447 1 1 1h5.466c0.553 0 1-0.447 1-1S60.617 71.248 60.064 71.248z" fill="#128aa4" data-fill-palette-color="accent"></path><path d="M70.094 71.248h-5.465c-0.553 0-1 0.447-1 1s0.447 1 1 1h5.465c0.553 0 1-0.447 1-1S70.646 71.248 70.094 71.248z" fill="#128aa4" data-fill-palette-color="accent"></path><path d="M80.124 71.248h-5.466c-0.553 0-1 0.447-1 1s0.447 1 1 1h5.466c0.553 0 1-0.447 1-1S80.677 71.248 80.124 71.248z" fill="#128aa4" data-fill-palette-color="accent"></path><path d="M60.064 76.082h-5.466c-0.553 0-1 0.447-1 1s0.447 1 1 1h5.466c0.553 0 1-0.447 1-1S60.617 76.082 60.064 76.082z" fill="#128aa4" data-fill-palette-color="accent"></path><path d="M70.094 76.082h-5.465c-0.553 0-1 0.447-1 1s0.447 1 1 1h5.465c0.553 0 1-0.447 1-1S70.646 76.082 70.094 76.082z" fill="#128aa4" data-fill-palette-color="accent"></path><path d="M80.124 76.082h-5.466c-0.553 0-1 0.447-1 1s0.447 1 1 1h5.466c0.553 0 1-0.447 1-1S80.677 76.082 80.124 76.082z" fill="#128aa4" data-fill-palette-color="accent"></path><path d="M60.064 80.915h-5.466c-0.553 0-1 0.447-1 1s0.447 1 1 1h5.466c0.553 0 1-0.447 1-1S60.617 80.915 60.064 80.915z" fill="#128aa4" data-fill-palette-color="accent"></path><path d="M70.094 80.915h-5.465c-0.553 0-1 0.447-1 1s0.447 1 1 1h5.465c0.553 0 1-0.447 1-1S70.646 80.915 70.094 80.915z" fill="#128aa4" data-fill-palette-color="accent"></path><path d="M80.124 80.915h-5.466c-0.553 0-1 0.447-1 1s0.447 1 1 1h5.466c0.553 0 1-0.447 1-1S80.677 80.915 80.124 80.915z" fill="#128aa4" data-fill-palette-color="accent"></path><path d="M37.371 65.248H20.29c-0.553 0-1 0.447-1 1s0.447 1 1 1h17.081c0.553 0 1-0.447 1-1S37.924 65.248 37.371 65.248z" fill="#128aa4" data-fill-palette-color="accent"></path><path d="M25.756 71.248H20.29c-0.553 0-1 0.447-1 1s0.447 1 1 1h5.466c0.553 0 1-0.447 1-1S26.309 71.248 25.756 71.248z" fill="#128aa4" data-fill-palette-color="accent"></path><path d="M35.785 71.248H30.32c-0.553 0-1 0.447-1 1s0.447 1 1 1h5.465c0.553 0 1-0.447 1-1S36.338 71.248 35.785 71.248z" fill="#128aa4" data-fill-palette-color="accent"></path><path d="M45.815 71.248H40.35c-0.553 0-1 0.447-1 1s0.447 1 1 1h5.466c0.553 0 1-0.447 1-1S46.368 71.248 45.815 71.248z" fill="#128aa4" data-fill-palette-color="accent"></path><path d="M25.756 76.082H20.29c-0.553 0-1 0.447-1 1s0.447 1 1 1h5.466c0.553 0 1-0.447 1-1S26.309 76.082 25.756 76.082z" fill="#128aa4" data-fill-palette-color="accent"></path><path d="M35.785 76.082H30.32c-0.553 0-1 0.447-1 1s0.447 1 1 1h5.465c0.553 0 1-0.447 1-1S36.338 76.082 35.785 76.082z" fill="#128aa4" data-fill-palette-color="accent"></path><path d="M45.815 76.082H40.35c-0.553 0-1 0.447-1 1s0.447 1 1 1h5.466c0.553 0 1-0.447 1-1S46.368 76.082 45.815 76.082z" fill="#128aa4" data-fill-palette-color="accent"></path><path d="M25.756 80.915H20.29c-0.553 0-1 0.447-1 1s0.447 1 1 1h5.466c0.553 0 1-0.447 1-1S26.309 80.915 25.756 80.915z" fill="#128aa4" data-fill-palette-color="accent"></path><path d="M35.785 80.915H30.32c-0.553 0-1 0.447-1 1s0.447 1 1 1h5.465c0.553 0 1-0.447 1-1S36.338 80.915 35.785 80.915z" fill="#128aa4" data-fill-palette-color="accent"></path><path d="M45.815 80.915H40.35c-0.553 0-1 0.447-1 1s0.447 1 1 1h5.466c0.553 0 1-0.447 1-1S46.368 80.915 45.815 80.915z" fill="#128aa4" data-fill-palette-color="accent"></path><path d="M22.099 51.462l-2.091 2.651c-0.342 0.434-0.268 1.062 0.166 1.404 0.184 0.145 0.401 0.215 0.618 0.215 0.296 0 0.589-0.131 0.786-0.381l0.658-0.835h19.983l0.659 0.835c0.197 0.25 0.49 0.381 0.786 0.381 0.217 0 0.435-0.07 0.618-0.215 0.434-0.342 0.508-0.971 0.166-1.404l-2.093-2.653h0.271c0.029 0.002 0.096 0.005 0.191 0.005 0.524 0 1.924-0.097 2.942-1.057 0.481-0.453 1.054-1.281 1.053-2.654L46.81 26.212c0.016-0.201 0.104-2.018-1.607-3.865-2.313-2.501-6.679-3.77-12.974-3.77-6.316 0-10.688 1.271-12.994 3.776-1.701 1.849-1.604 3.663-1.591 3.781v22.193c0 1.728 1.406 3.134 3.134 3.134L22.099 51.462zM23.814 52.517l0.832-1.055 15.163-0.001 0.833 1.056H23.814zM19.64 26.052c0-0.011-0.04-1.142 1.066-2.344 1.313-1.429 4.38-3.131 11.522-3.131 7.039 0 10.11 1.667 11.447 3.064 1.178 1.232 1.141 2.383 1.137 2.493v1.136H19.64L19.64 26.052zM19.64 29.271h25.172v8.867H19.642L19.64 29.271zM19.644 48.328l-0.001-8.19h25.17v7.617 0.001c0.001 0.532-0.136 0.922-0.418 1.191-0.488 0.466-1.36 0.522-1.708 0.515H20.777C20.152 49.462 19.644 48.953 19.644 48.328z" fill="#128aa4" data-fill-palette-color="accent"></path><path d="M23.995 47.926c1.666 0 3.021-1.355 3.021-3.021 0-1.665-1.355-3.021-3.021-3.021-1.665 0-3.021 1.355-3.021 3.021C20.975 46.57 22.33 47.926 23.995 47.926zM23.995 43.884c0.563 0 1.021 0.458 1.021 1.021 0 0.563-0.458 1.021-1.021 1.021-0.562 0-1.021-0.458-1.021-1.021C22.975 44.342 23.433 43.884 23.995 43.884z" fill="#128aa4" data-fill-palette-color="accent"></path><path d="M40.46 47.926c1.666 0 3.021-1.355 3.021-3.021 0-1.665-1.355-3.021-3.021-3.021-1.665 0-3.021 1.355-3.021 3.021C37.439 46.57 38.795 47.926 40.46 47.926zM40.46 43.884c0.563 0 1.021 0.458 1.021 1.021 0 0.563-0.458 1.021-1.021 1.021-0.562 0-1.021-0.458-1.021-1.021C39.439 44.342 39.897 43.884 40.46 43.884z" fill="#128aa4" data-fill-palette-color="accent"></path><path d="M35.631 23.111h-6.806c-0.553 0-1 0.447-1 1s0.447 1 1 1h6.806c0.553 0 1-0.447 1-1S36.184 23.111 35.631 23.111z" fill="#128aa4" data-fill-palette-color="accent"></path></svg></g></svg></g></svg></g><defs></defs></svg><rect width="395.52" height="66.34782080612882" fill="none" stroke="none" visibility="hidden"></rect></g></svg></g></svg>